<svg id="Layer_1" data-name="Layer 1" xmlns="http://www.w3.org/2000/svg" viewBox="0 0 377.4 52.78"><defs><style>.cls-1{fill:#5366f5;}</style></defs><path class="cls-1" d="M.44,49,4.11,37.59A40.52,40.52,0,0,0,17.62,40.3a10.81,10.81,0,0,0,4.73-.77,2.46,2.46,0,0,0,1.51-2.31,2.4,2.4,0,0,0-.81-1.8,10.72,10.72,0,0,0-3.23-1.72c-1.61-.64-4-1.42-7.27-2.35A18.41,18.41,0,0,1,3.3,25.58,14,14,0,0,1,0,16.37Q0,8.3,5.32,4.15T19.67,0a43.31,43.31,0,0,1,9.25,1A30.54,30.54,0,0,1,37,3.89L33,15a60.12,60.12,0,0,0-7.16-2A29.14,29.14,0,0,0,20,12.33q-4.85,0-4.85,2.65a2.62,2.62,0,0,0,1.58,2.23,32.8,32.8,0,0,0,6.5,2.32q7.71,2.05,11.67,6.27a14.26,14.26,0,0,1,4,10.1q0,8.15-5.28,12.51T17.91,52.78Q7.56,52.78.44,49Z"/><path class="cls-1" d="M57.11,1.1H79.43L94,51.61H76.79l-1.91-9.69H61.81l-2.13,9.69H43.17Zm16,31.79-4.77-22.1-5,22.1Z"/><path class="cls-1" d="M104.9,12.26H94.41V1.1h38.1V12.26H122V51.61H104.9Z"/><path class="cls-1" d="M141.24,1.1H176.7V12.26H159.08v9.18h16.08v9.25H159.08v9.76H176.7V51.61H141.24Z"/><path class="cls-1" d="M186.76,1.1h15.85V40.45h17.55V51.61h-33.4Z"/><path class="cls-1" d="M228.09,1.1h15.85V40.45h17.55V51.61h-33.4Z"/><path class="cls-1" d="M269.42,1.1h17V51.61h-17Z"/><path class="cls-1" d="M305.61,12.26h-10.5V1.1h38.1V12.26h-10.5V51.61h-17.1Z"/><path class="cls-1" d="M342,1.1H377.4V12.26H359.79v9.18h16.07v9.25H359.79v9.76H377.4V51.61H342Z"/></svg>