<svg id="Layer_1" data-name="Layer 1" xmlns="http://www.w3.org/2000/svg" viewBox="0 0 108.7 103.48"><defs><style>.cls-1{fill:#51b4f4;}.cls-2{fill:#5366f5;}.cls-3{fill:#4e4e54;}.cls-4{fill:#74d6cc;}.cls-5{fill:#f7f0e4;}</style></defs><circle class="cls-1" cx="28.78" cy="26.17" r="9.45"/><rect class="cls-2" x="39.19" y="27.93" width="30.32" height="47.62" transform="translate(-20.67 53.59) rotate(-45)"/><path class="cls-1" d="M73.25,89.71A13.49,13.49,0,1,1,92.32,70.63Z"/><path class="cls-3" d="M88.87,76.87a6.64,6.64,0,0,1-9.38,9.39Z"/><rect class="cls-4" x="66.96" y="10.88" width="30.6" height="25.9" transform="translate(7.25 65.15) rotate(-45)"/><rect class="cls-3" x="65.93" y="31.15" width="6.46" height="11.57" transform="translate(-5.86 59.72) rotate(-45)"/><rect class="cls-5" x="63.91" y="20.41" width="30.6" height="0.73" transform="translate(8.51 62.1) rotate(-45)"/><rect class="cls-5" x="70.02" y="26.52" width="30.6" height="0.73" transform="translate(5.98 68.2) rotate(-45)"/><rect class="cls-5" x="79.74" y="13.04" width="0.73" height="25.9" transform="translate(5.08 64.25) rotate(-45)"/><rect class="cls-5" x="75.41" y="17.37" width="0.73" height="25.9" transform="translate(0.75 62.46) rotate(-45)"/><rect class="cls-5" x="84.07" y="8.71" width="0.73" height="25.9" transform="translate(9.41 66.05) rotate(-45)"/><rect class="cls-5" x="88.39" y="4.39" width="0.73" height="25.9" transform="translate(13.74 67.84) rotate(-45)"/><rect class="cls-4" x="11.14" y="66.7" width="30.6" height="25.9" transform="translate(101.46 117.28) rotate(135)"/><rect class="cls-3" x="36.31" y="60.76" width="6.46" height="11.57" transform="translate(114.56 85.64) rotate(135)"/><rect class="cls-5" x="8.09" y="76.24" width="30.6" height="0.73" transform="translate(-47.31 38.97) rotate(-45)"/><rect class="cls-5" x="14.19" y="82.34" width="30.6" height="0.73" transform="translate(-49.84 45.08) rotate(-45)"/><rect class="cls-5" x="28.24" y="64.54" width="0.73" height="25.9" transform="translate(-46.42 42.92) rotate(-45)"/><rect class="cls-5" x="32.57" y="60.21" width="0.73" height="25.9" transform="translate(-42.09 44.71) rotate(-45)"/><rect class="cls-5" x="23.91" y="68.87" width="0.73" height="25.9" transform="translate(-50.74 41.13) rotate(-45)"/><rect class="cls-5" x="19.58" y="73.2" width="0.73" height="25.9" transform="translate(-55.07 39.34) rotate(-45)"/><rect class="cls-1" x="58.61" y="34.26" width="0.55" height="25.9" transform="translate(-16.13 55.47) rotate(-45)"/><rect class="cls-1" x="49.55" y="43.32" width="0.55" height="25.9" transform="translate(-25.2 51.71) rotate(-45)"/></svg>