<svg id="Layer_1" data-name="Layer 1" xmlns="http://www.w3.org/2000/svg" viewBox="0 0 495.19 114.89"><defs><style>.cls-1{fill:#5366f5;}.cls-2{fill:#51b4f4;}.cls-3{fill:#4e4e54;}.cls-4{fill:#74d6cc;}.cls-5{fill:#f7f0e4;}</style></defs><path class="cls-1" d="M113,80l3.67-11.38a40.51,40.51,0,0,0,13.5,2.71,10.83,10.83,0,0,0,4.74-.77,2.49,2.49,0,0,0,.7-4.11,10.85,10.85,0,0,0-3.23-1.72q-2.43-1-7.27-2.35a18.43,18.43,0,0,1-9.25-5.76,14.08,14.08,0,0,1-3.3-9.22q0-8.07,5.32-12.22t14.35-4.15a43.45,43.45,0,0,1,9.25,1,30.46,30.46,0,0,1,8.07,2.9l-4,11.09a59.6,59.6,0,0,0-7.16-2,29.14,29.14,0,0,0-5.91-.63c-3.23,0-4.84.89-4.84,2.65a2.63,2.63,0,0,0,1.58,2.24,33.49,33.49,0,0,0,6.49,2.31q7.71,2.06,11.68,6.28a14.22,14.22,0,0,1,4,10.09q0,8.14-5.29,12.52t-15.63,4.36Q120.08,83.83,113,80Z"/><path class="cls-1" d="M169.63,32.15H192l14.61,50.51H189.3L187.4,73H174.33l-2.13,9.69H155.68Zm16,31.79-4.77-22.1-5,22.1Z"/><path class="cls-1" d="M217.42,43.31h-10.5V32.15H245V43.31h-10.5V82.66h-17.1Z"/><path class="cls-1" d="M253.76,32.15h35.46V43.31H271.6v9.18h16.07v9.25H271.6V71.5h17.62V82.66H253.76Z"/><path class="cls-1" d="M299.27,32.15h15.86V71.5h17.54V82.66h-33.4Z"/><path class="cls-1" d="M340.6,32.15h15.86V71.5H374V82.66H340.6Z"/><path class="cls-1" d="M381.93,32.15h17V82.66h-17Z"/><path class="cls-1" d="M418.12,43.31H407.63V32.15h38.1V43.31h-10.5V82.66H418.12Z"/><path class="cls-1" d="M454.46,32.15h35.46V43.31H472.3v9.18h16.08v9.25H472.3V71.5h17.62V82.66H454.46Z"/><circle class="cls-2" cx="27.58" cy="31.87" r="9.45"/><rect class="cls-1" x="38" y="33.63" width="30.32" height="47.62" transform="translate(-25.05 54.41) rotate(-45)"/><path class="cls-2" d="M72.05,95.41A13.49,13.49,0,0,1,91.13,76.34Z"/><path class="cls-3" d="M87.67,82.58A6.63,6.63,0,0,1,78.29,92Z"/><rect class="cls-4" x="65.77" y="16.58" width="30.6" height="25.9" transform="translate(2.86 65.97) rotate(-45)"/><rect class="cls-3" x="64.73" y="36.85" width="6.46" height="11.57" transform="translate(-10.24 60.55) rotate(-45)"/><rect class="cls-5" x="62.72" y="26.11" width="30.6" height="0.73" transform="translate(4.13 62.92) rotate(-45)"/><rect class="cls-5" x="68.82" y="32.22" width="30.6" height="0.73" transform="translate(1.6 69.03) rotate(-45)"/><rect class="cls-5" x="78.54" y="18.74" width="0.73" height="25.9" transform="translate(0.7 65.08) rotate(-45)"/><rect class="cls-5" x="74.21" y="23.07" width="0.73" height="25.9" transform="translate(-3.63 63.28) rotate(-45)"/><rect class="cls-5" x="82.87" y="14.42" width="0.73" height="25.9" transform="translate(5.03 66.87) rotate(-45)"/><rect class="cls-5" x="87.2" y="10.09" width="0.73" height="25.9" transform="translate(9.36 68.66) rotate(-45)"/><rect class="cls-4" x="9.94" y="72.41" width="30.6" height="25.9" transform="translate(103.45 127.86) rotate(135)"/><rect class="cls-3" x="35.12" y="66.47" width="6.46" height="11.57" transform="translate(116.55 96.22) rotate(135)"/><rect class="cls-5" x="6.89" y="81.94" width="30.6" height="0.73" transform="translate(-51.7 39.8) rotate(-45)"/><rect class="cls-5" x="12.99" y="88.04" width="30.6" height="0.73" transform="translate(-54.23 45.9) rotate(-45)"/><rect class="cls-5" x="27.04" y="70.24" width="0.73" height="25.9" transform="translate(-50.8 43.75) rotate(-45)"/><rect class="cls-5" x="31.37" y="65.91" width="0.73" height="25.9" transform="translate(-46.47 45.54) rotate(-45)"/><rect class="cls-5" x="22.72" y="74.57" width="0.73" height="25.9" transform="translate(-55.13 41.95) rotate(-45)"/><rect class="cls-5" x="18.39" y="78.9" width="0.73" height="25.9" transform="translate(-59.45 40.16) rotate(-45)"/><rect class="cls-2" x="57.42" y="39.96" width="0.55" height="25.9" transform="translate(-20.52 56.29) rotate(-45)"/><rect class="cls-2" x="48.35" y="49.03" width="0.55" height="25.9" transform="translate(-29.58 52.53) rotate(-45)"/></svg>